HIERARCHY
ROOT Hips
{
	OFFSET 0.000000 0.000000 0.000000 
	CHANNELS 6 Xposition Yposition Zposition Zrotation Yrotation Xrotation
	JOINT LeftUpLeg
	{
		OFFSET 1.363060 -1.794630 0.839290 
		CHANNELS 3 Zrotation Yrotation Xrotation
		JOINT LeftLeg
		{
			OFFSET 2.448110 -6.726130 0.000000 
			CHANNELS 3 Zrotation Yrotation Xrotation
			JOINT LeftFoot
			{
				OFFSET 2.562200 -7.039590 0.000000 
				CHANNELS 3 Zrotation Yrotation Xrotation
				JOINT LeftToeBase
				{
					OFFSET 0.157640 -0.433110 2.322550 
					CHANNELS 3 Zrotation Yrotation Xrotation
					End Site
					{
						OFFSET 0.000000 0.000000 0.000000 
					}
				}
			}
		}
	}
	JOINT RightUpLeg
	{
		OFFSET -1.305520 -1.794630 0.839290 
		CHANNELS 3 Zrotation Yrotation Xrotation
		JOINT RightLeg
		{
			OFFSET -2.542530 -6.985550 0.000000 
			CHANNELS 3 Zrotation Yrotation Xrotation
			JOINT RightFoot
			{
				OFFSET -2.568260 -7.056230 0.000000 
				CHANNELS 3 Zrotation Yrotation Xrotation
				JOINT RightToeBase
				{
					OFFSET -0.164730 -0.452590 2.363150 
					CHANNELS 3 Zrotation Yrotation Xrotation
					End Site
					{
						OFFSET 0.000000 0.000000 0.000000 
					}
				}
			}
		}
	}
	JOINT Spine
	{
		OFFSET 0.028270 2.035590 -0.193380 
		CHANNELS 3 Zrotation Yrotation Xrotation
		JOINT Spine1
		{
			OFFSET 0.056720 2.048850 -0.042750 
			CHANNELS 3 Zrotation Yrotation Xrotation
			JOINT Neck1
			{
				OFFSET -0.054170 1.746240 0.172020 
				CHANNELS 3 Zrotation Yrotation Xrotation
				JOINT Head
				{
					OFFSET 0.104070 1.761360 -0.123970 
					CHANNELS 3 Zrotation Yrotation Xrotation
					End Site
					{
						OFFSET 0.000000 0.000000 0.000000 
					}
				}
			}
			JOINT LeftArm
			{
				OFFSET 3.362410 1.200890 -0.311210 
				CHANNELS 3 Zrotation Yrotation Xrotation
				JOINT LeftForeArm
				{
					OFFSET 4.983000 -0.000000 -0.000000 
					CHANNELS 3 Zrotation Yrotation Xrotation
					JOINT LeftHand
					{
						OFFSET 3.483560 -0.000000 -0.000000 
						CHANNELS 3 Zrotation Yrotation Xrotation
						JOINT LeftHandIndex1
						{
							OFFSET 0.715260 -0.000000 -0.000000 
							CHANNELS 3 Zrotation Yrotation Xrotation
							End Site
							{
								OFFSET 0.000000 0.000000 0.000000 
							}
						}
					}
				}
			}
			JOINT RightArm
			{
				OFFSET -3.136600 1.374050 -0.404650 
				CHANNELS 3 Zrotation Yrotation Xrotation
				JOINT RightForeArm
				{
					OFFSET -5.241900 -0.000000 -0.000000 
					CHANNELS 3 Zrotation Yrotation Xrotation
					JOINT RightHand
					{
						OFFSET -3.444170 -0.000000 -0.000000 
						CHANNELS 3 Zrotation Yrotation Xrotation
						JOINT RightHandIndex1
						{
							OFFSET -0.622530 -0.000000 -0.000000 
							CHANNELS 3 Zrotation Yrotation Xrotation
							End Site
							{
								OFFSET 0.000000 0.000000 0.000000 
							}
						}
					}
				}
			}
		}
	}
}
MOTION
Frames: 7
Frame Time: 0.041667
2.944754 18.144600 6.011211 -76.123569 -80.742600 82.861200 -3.378382 -8.010742 -22.979515 8.963865 17.469129 56.384050 -0.045531 2.150577 6.557570 0.641700 -5.124700 -14.264700 32.337866 2.327549 -9.249287 0.097051 -5.343782 13.271651 2.376629 -13.961097 -3.065119 -1.085100 -6.620600 18.596100 1.392552 0.781323 -5.508742 3.172349 0.261970 -2.535250 2.515055 -6.739828 8.790886 1.617200 -3.693600 6.418500 -85.250360 -21.535498 49.230105 79.822114 -62.741282 -42.454995 -0.336532 2.023483 17.119486 -7.125000 0.000000 0.000000 74.768285 22.682822 47.993713 -78.946524 61.428900 -52.375545 -0.621059 0.333311 11.668948 7.125000 0.000000 0.000000 
2.808502 18.147911 6.001478 -78.112800 -80.746434 84.878338 -3.217717 -7.957967 -23.701457 8.716432 17.315313 55.564557 -0.081421 2.229832 5.727358 0.643300 -5.130900 -14.282400 32.522930 2.330467 -8.563044 0.123437 -5.217894 12.936415 2.350267 -13.835092 -3.248210 -1.048100 -6.510200 18.272200 1.367685 0.876773 -5.526628 3.029273 0.298304 -2.597842 2.564203 -6.695204 8.737078 1.629900 -3.664000 6.396400 -84.831087 -20.767595 48.905689 79.060844 -62.764231 -41.918651 -0.350265 2.008118 16.694249 -7.125000 0.000000 0.000000 75.151417 22.237021 48.213313 -78.115933 61.346563 -51.677139 -0.611581 0.329037 11.428480 7.125000 0.000000 0.000000 
2.672753 18.149415 5.992348 -80.089058 -80.732309 86.897904 -3.038750 -7.889587 -24.399270 8.430444 17.131204 54.608552 -0.116612 2.337612 4.990885 0.647900 -5.149200 -14.334700 32.710522 2.355012 -7.907325 0.146603 -5.103564 12.633082 2.328410 -13.729663 -3.448121 -1.008500 -6.389700 17.919500 1.345012 0.968529 -5.545167 2.891487 0.332789 -2.657821 2.609457 -6.647037 8.678998 1.641400 -3.632900 6.375400 -84.445792 -19.973226 48.567970 78.165470 -62.782453 -41.288681 -0.363155 1.993564 16.238129 -7.125000 0.000000 0.000000 75.527569 21.779560 48.446102 -77.189384 61.247022 -50.897313 -0.602678 0.324515 11.125431 7.125000 0.000000 0.000000 
2.537605 18.149114 5.983920 -82.057501 -80.710691 88.924363 -2.855542 -7.809306 -25.070136 8.109155 16.916331 53.523485 -0.153321 2.478810 4.346267 0.653300 -5.170100 -14.394400 32.887175 2.398160 -7.284279 0.166610 -5.001536 12.363932 2.311183 -13.644679 -3.662040 -0.965100 -6.254800 17.525500 1.322876 1.057353 -5.566279 2.759733 0.365742 -2.721790 2.655950 -6.594431 8.617116 1.655300 -3.599900 6.354100 -84.096703 -19.147515 48.218601 77.118881 -62.790468 -40.555394 -0.373719 1.980505 15.752329 -7.125000 0.000000 0.000000 75.896877 21.301109 48.695749 -76.158056 61.127115 -50.028026 -0.594310 0.319322 10.769942 7.125000 0.000000 0.000000 
2.403361 18.147208 5.976295 -83.936304 -80.685010 90.875386 -2.672730 -7.729291 -25.709371 7.753325 16.668589 52.309308 -0.189461 2.634764 3.783626 0.667200 -5.223800 -14.548100 33.048018 2.450697 -6.700679 0.183541 -4.912920 12.131653 2.299802 -13.586714 -3.886966 -0.914900 -6.094400 17.058600 1.301588 1.135873 -5.588829 2.635071 0.393647 -2.789018 2.700835 -6.535874 8.548392 1.670000 -3.564300 6.331800 -83.786724 -18.294855 47.849967 75.907239 -62.781081 -39.711969 -0.381194 1.969382 15.244772 -7.125000 0.000000 0.000000 76.261273 20.812321 48.966772 -75.001710 60.981205 -49.052505 -0.586323 0.314341 10.371387 7.125000 0.000000 0.000000 
2.270019 18.143797 5.969272 -85.760730 -80.662483 92.785787 -2.495920 -7.650328 -26.310697 7.364411 16.385592 50.965317 -0.227316 2.811762 3.291357 0.685500 -5.293400 -14.747200 33.185293 2.520215 -6.152412 0.197236 -4.838700 11.938812 2.292915 -13.548689 -4.126633 -0.862300 -5.921400 16.556500 1.279770 1.205218 -5.611908 2.515891 0.417133 -2.855961 2.739882 -6.469242 8.465129 1.683300 -3.525000 6.303900 -83.519216 -17.422672 47.462237 74.509968 -62.745018 -38.746774 -0.385357 1.961261 14.719792 -7.125000 0.000000 0.000000 76.624768 20.314008 49.257522 -73.710202 60.804707 -47.962200 -0.578688 0.309844 9.938517 7.125000 0.000000 0.000000 
2.136276 18.138881 5.963352 -87.659266 -80.638475 94.779174 -2.323005 -7.560359 -26.854891 6.942276 16.063096 49.484024 -0.270483 3.025371 2.865565 0.701600 -5.353900 -14.920900 33.303090 2.602570 -5.629760 0.207851 -4.779779 11.788383 2.285315 -13.508100 -4.377467 -0.809500 -5.741800 16.037000 1.258279 1.272328 -5.629186 2.403964 0.440522 -2.897085 2.776837 -6.396393 8.363155 1.698200 -3.482800 6.268800 -83.301308 -16.545868 47.057303 72.918618 -62.671546 -37.656124 -0.384285 1.956522 14.172584 -7.125000 0.000000 0.000000 76.982600 19.820871 49.563486 -72.271936 60.592232 -46.747267 -0.571311 0.305962 9.475678 7.125000 0.000000 0.000000 
